{
	"asset":{
		"generator":"Khronos glTF Blender I/O v5.0.21",
		"version":"2.0"
	},
	"extensionsUsed":[
		"KHR_materials_unlit"
	],
	"scene":0,
	"scenes":[
		{
			"name":"Scene",
			"nodes":[
				7
			]
		}
	],
	"nodes":[
		{
			"mesh":0,
			"name":"platform-stone_hjar-mid-fin_0"
		},
		{
			"mesh":1,
			"name":"platform-stone_Material #2_0"
		},
		{
			"mesh":2,
			"name":"platform-stone_rocherfin-hjar-fin_0"
		},
		{
			"children":[
				0,
				1,
				2
			],
			"name":"Object_4",
			"translation":[
				0,
				0,
				-60.413753509521484
			]
		},
		{
			"children":[
				3
			],
			"name":"platform-stone",
			"rotation":[
				-0.70710688829422,
				0,
				0,
				0.7071066498756409
			],
			"scale":[
				-1,
				-1.0000001192092896,
				-1.0000001192092896
			],
			"translation":[
				-258.61602783203125,
				397.15447998046875,
				147.7978057861328
			]
		},
		{
			"children":[
				4
			],
			"name":"RootNode",
			"translation":[
				0,
				2.1186664525885135e-05,
				-1.1105526937171817e-05
			]
		},
		{
			"children":[
				5
			],
			"name":"93b6e5a1f0eb4eeea0d5cd72c73fcacb.fbx",
			"rotation":[
				0.70710688829422,
				0,
				0,
				0.7071066498756409
			],
			"translation":[
				0,
				-2.07664561457932e-06,
				1.059332862496376e-05
			]
		},
		{
			"children":[
				6
			],
			"name":"Sketchfab_model",
			"rotation":[
				0.70710688829422,
				0,
				0,
				0.7071066498756409
			],
			"translation":[
				256.73797607421875,
				469.7257385253906,
				148.2913360595703
			]
		}
	],
	"materials":[
		{
			"doubleSided":true,
			"extensions":{
				"KHR_materials_unlit":{}
			},
			"name":"hjar-mid-fin",
			"pbrMetallicRoughness":{
				"baseColorTexture":{
					"index":0
				},
				"metallicFactor":0,
				"roughnessFactor":0.9
			}
		},
		{
			"doubleSided":true,
			"extensions":{
				"KHR_materials_unlit":{}
			},
			"name":"Material_2",
			"pbrMetallicRoughness":{
				"baseColorTexture":{
					"index":1
				},
				"metallicFactor":0,
				"roughnessFactor":0.9
			}
		},
		{
			"doubleSided":true,
			"extensions":{
				"KHR_materials_unlit":{}
			},
			"name":"rocherfin-hjar-fin",
			"pbrMetallicRoughness":{
				"baseColorTexture":{
					"index":2
				},
				"metallicFactor":0,
				"roughnessFactor":0.9
			}
		}
	],
	"meshes":[
		{
			"name":"platform-stone_hjar-mid-fin_0",
			"primitives":[
				{
					"attributes":{
						"POSITION":0,
						"NORMAL":1,
						"TEXCOORD_0":2,
						"TEXCOORD_1":3
					},
					"indices":4,
					"material":0
				}
			]
		},
		{
			"name":"platform-stone_Material #2_0",
			"primitives":[
				{
					"attributes":{
						"POSITION":5,
						"NORMAL":6,
						"TEXCOORD_0":7,
						"TEXCOORD_1":8
					},
					"indices":9,
					"material":1
				}
			]
		},
		{
			"name":"platform-stone_rocherfin-hjar-fin_0",
			"primitives":[
				{
					"attributes":{
						"POSITION":10,
						"NORMAL":11,
						"TEXCOORD_0":12,
						"TEXCOORD_1":13
					},
					"indices":14,
					"material":2
				}
			]
		}
	],
	"textures":[
		{
			"sampler":0,
			"source":0
		},
		{
			"sampler":0,
			"source":1
		},
		{
			"sampler":0,
			"source":0
		}
	],
	"images":[
		{
			"mimeType":"image/jpeg",
			"name":"hjar-mid-fin_baseColor.jpeg",
			"uri":"../../../../Blender/win_platform/textures/hjar-mid-fin_baseColor.jpeg"
		},
		{
			"mimeType":"image/jpeg",
			"name":"hjar-mid-fin_emissive.jpeg",
			"uri":"../../../../Blender/win_platform/textures/hjar-mid-fin_emissive.jpeg"
		}
	],
	"accessors":[
		{
			"bufferView":0,
			"componentType":5126,
			"count":523,
			"max":[
				94.67667388916016,
				98.4251937866211,
				48.97211456298828
			],
			"min":[
				-98.4251937866211,
				-98.4251937866211,
				-11.811023712158203
			],
			"type":"VEC3"
		},
		{
			"bufferView":1,
			"componentType":5126,
			"count":523,
			"type":"VEC3"
		},
		{
			"bufferView":2,
			"componentType":5126,
			"count":523,
			"type":"VEC2"
		},
		{
			"bufferView":3,
			"componentType":5126,
			"count":523,
			"type":"VEC2"
		},
		{
			"bufferView":4,
			"componentType":5123,
			"count":1674,
			"type":"SCALAR"
		},
		{
			"bufferView":5,
			"componentType":5126,
			"count":12,
			"max":[
				96.86202239990234,
				18.685035705566406,
				49.84113311767578
			],
			"min":[
				-96.85405731201172,
				-18.685035705566406,
				49.662986755371094
			],
			"type":"VEC3"
		},
		{
			"bufferView":6,
			"componentType":5126,
			"count":12,
			"type":"VEC3"
		},
		{
			"bufferView":7,
			"componentType":5126,
			"count":12,
			"type":"VEC2"
		},
		{
			"bufferView":8,
			"componentType":5126,
			"count":12,
			"type":"VEC2"
		},
		{
			"bufferView":9,
			"componentType":5123,
			"count":30,
			"type":"SCALAR"
		},
		{
			"bufferView":10,
			"componentType":5126,
			"count":1581,
			"max":[
				98.4251937866211,
				98.4251937866211,
				49.84113311767578
			],
			"min":[
				-98.4251937866211,
				-98.4251937866211,
				-11.811023712158203
			],
			"type":"VEC3"
		},
		{
			"bufferView":11,
			"componentType":5126,
			"count":1581,
			"type":"VEC3"
		},
		{
			"bufferView":12,
			"componentType":5126,
			"count":1581,
			"type":"VEC2"
		},
		{
			"bufferView":13,
			"componentType":5126,
			"count":1581,
			"type":"VEC2"
		},
		{
			"bufferView":14,
			"componentType":5123,
			"count":5040,
			"type":"SCALAR"
		}
	],
	"bufferViews":[
		{
			"buffer":0,
			"byteLength":6276,
			"byteOffset":0,
			"target":34962
		},
		{
			"buffer":0,
			"byteLength":6276,
			"byteOffset":6276,
			"target":34962
		},
		{
			"buffer":0,
			"byteLength":4184,
			"byteOffset":12552,
			"target":34962
		},
		{
			"buffer":0,
			"byteLength":4184,
			"byteOffset":16736,
			"target":34962
		},
		{
			"buffer":0,
			"byteLength":3348,
			"byteOffset":20920,
			"target":34963
		},
		{
			"buffer":0,
			"byteLength":144,
			"byteOffset":24268,
			"target":34962
		},
		{
			"buffer":0,
			"byteLength":144,
			"byteOffset":24412,
			"target":34962
		},
		{
			"buffer":0,
			"byteLength":96,
			"byteOffset":24556,
			"target":34962
		},
		{
			"buffer":0,
			"byteLength":96,
			"byteOffset":24652,
			"target":34962
		},
		{
			"buffer":0,
			"byteLength":60,
			"byteOffset":24748,
			"target":34963
		},
		{
			"buffer":0,
			"byteLength":18972,
			"byteOffset":24808,
			"target":34962
		},
		{
			"buffer":0,
			"byteLength":18972,
			"byteOffset":43780,
			"target":34962
		},
		{
			"buffer":0,
			"byteLength":12648,
			"byteOffset":62752,
			"target":34962
		},
		{
			"buffer":0,
			"byteLength":12648,
			"byteOffset":75400,
			"target":34962
		},
		{
			"buffer":0,
			"byteLength":10080,
			"byteOffset":88048,
			"target":34963
		}
	],
	"samplers":[
		{
			"magFilter":9729,
			"minFilter":9987
		}
	],
	"buffers":[
		{
			"byteLength":98128,
			"uri":"Platform.bin"
		}
	]
}
