{
	"asset":{
		"generator":"Khronos glTF Blender I/O v5.0.21",
		"version":"2.0"
	},
	"extensionsUsed":[
		"KHR_materials_unlit"
	],
	"scene":0,
	"scenes":[
		{
			"name":"Scene",
			"nodes":[
				9
			]
		}
	],
	"nodes":[
		{
			"mesh":0,
			"name":"platform-stone_flag-stone-fin_0"
		},
		{
			"mesh":1,
			"name":"platform-stone_hjar-mid-fin_0"
		},
		{
			"mesh":2,
			"name":"platform-stone_Material #2_0"
		},
		{
			"mesh":3,
			"name":"platform-stone_pii-fin_0"
		},
		{
			"mesh":4,
			"name":"platform-stone_rocherfin-hjar-fin_0"
		},
		{
			"children":[
				0,
				1,
				2,
				3,
				4
			],
			"name":"Object_4",
			"translation":[
				0,
				0,
				-60.413753509521484
			]
		},
		{
			"children":[
				5
			],
			"name":"platform-stone",
			"rotation":[
				-0.70710688829422,
				0,
				0,
				0.7071066498756409
			],
			"scale":[
				-1,
				-1.0000001192092896,
				-1.0000001192092896
			],
			"translation":[
				-258.61602783203125,
				397.15447998046875,
				147.7978057861328
			]
		},
		{
			"children":[
				6
			],
			"name":"RootNode",
			"translation":[
				0,
				2.1186664525885135e-05,
				-1.1105526937171817e-05
			]
		},
		{
			"children":[
				7
			],
			"name":"93b6e5a1f0eb4eeea0d5cd72c73fcacb.fbx",
			"rotation":[
				0.70710688829422,
				0,
				0,
				0.7071066498756409
			],
			"translation":[
				0,
				-2.07664561457932e-06,
				1.059332862496376e-05
			]
		},
		{
			"children":[
				8
			],
			"name":"Sketchfab_model",
			"rotation":[
				0.70710688829422,
				0,
				0,
				0.7071066498756409
			],
			"translation":[
				256.73797607421875,
				469.7257385253906,
				148.2913360595703
			]
		}
	],
	"materials":[
		{
			"doubleSided":true,
			"emissiveFactor":[
				0.521569013595581,
				0.10980399698019028,
				0
			],
			"name":"flag-stone-fin",
			"pbrMetallicRoughness":{
				"baseColorFactor":[
					0,
					0,
					0,
					1
				]
			}
		},
		{
			"doubleSided":true,
			"extensions":{
				"KHR_materials_unlit":{}
			},
			"name":"hjar-mid-fin",
			"pbrMetallicRoughness":{
				"baseColorTexture":{
					"index":0
				},
				"metallicFactor":0,
				"roughnessFactor":0.9
			}
		},
		{
			"doubleSided":true,
			"extensions":{
				"KHR_materials_unlit":{}
			},
			"name":"Material_2",
			"pbrMetallicRoughness":{
				"baseColorTexture":{
					"index":1
				},
				"metallicFactor":0,
				"roughnessFactor":0.9
			}
		},
		{
			"doubleSided":true,
			"emissiveFactor":[
				0.011764699593186378,
				0.011764699593186378,
				0.011764699593186378
			],
			"name":"pii-fin",
			"pbrMetallicRoughness":{
				"baseColorFactor":[
					0,
					0,
					0,
					1
				]
			}
		},
		{
			"doubleSided":true,
			"extensions":{
				"KHR_materials_unlit":{}
			},
			"name":"rocherfin-hjar-fin",
			"pbrMetallicRoughness":{
				"baseColorTexture":{
					"index":2
				},
				"metallicFactor":0,
				"roughnessFactor":0.9
			}
		}
	],
	"meshes":[
		{
			"name":"platform-stone_flag-stone-fin_0",
			"primitives":[
				{
					"attributes":{
						"POSITION":0,
						"NORMAL":1,
						"TEXCOORD_0":2,
						"TEXCOORD_1":3
					},
					"indices":4,
					"material":0
				}
			]
		},
		{
			"name":"platform-stone_hjar-mid-fin_0",
			"primitives":[
				{
					"attributes":{
						"POSITION":5,
						"NORMAL":6,
						"TEXCOORD_0":7,
						"TEXCOORD_1":8
					},
					"indices":9,
					"material":1
				}
			]
		},
		{
			"name":"platform-stone_Material #2_0",
			"primitives":[
				{
					"attributes":{
						"POSITION":10,
						"NORMAL":11,
						"TEXCOORD_0":12,
						"TEXCOORD_1":13
					},
					"indices":14,
					"material":2
				}
			]
		},
		{
			"name":"platform-stone_pii-fin_0",
			"primitives":[
				{
					"attributes":{
						"POSITION":15,
						"NORMAL":16,
						"TEXCOORD_0":17,
						"TEXCOORD_1":18
					},
					"indices":19,
					"material":3
				}
			]
		},
		{
			"name":"platform-stone_rocherfin-hjar-fin_0",
			"primitives":[
				{
					"attributes":{
						"POSITION":20,
						"NORMAL":21,
						"TEXCOORD_0":22,
						"TEXCOORD_1":23
					},
					"indices":24,
					"material":4
				}
			]
		}
	],
	"textures":[
		{
			"sampler":0,
			"source":0
		},
		{
			"sampler":0,
			"source":1
		},
		{
			"sampler":0,
			"source":0
		}
	],
	"images":[
		{
			"mimeType":"image/jpeg",
			"name":"hjar-mid-fin_baseColor.jpeg",
			"uri":"../../../../Blender/win_platform/textures/hjar-mid-fin_baseColor.jpeg"
		},
		{
			"mimeType":"image/jpeg",
			"name":"hjar-mid-fin_emissive.jpeg",
			"uri":"../../../../Blender/win_platform/textures/hjar-mid-fin_emissive.jpeg"
		}
	],
	"accessors":[
		{
			"bufferView":0,
			"componentType":5126,
			"count":30,
			"max":[
				78.35819244384766,
				39.54656219482422,
				189.99375915527344
			],
			"min":[
				77.1426010131836,
				12.788309097290039,
				165.06869506835938
			],
			"type":"VEC3"
		},
		{
			"bufferView":1,
			"componentType":5126,
			"count":30,
			"type":"VEC3"
		},
		{
			"bufferView":2,
			"componentType":5126,
			"count":30,
			"type":"VEC2"
		},
		{
			"bufferView":3,
			"componentType":5126,
			"count":30,
			"type":"VEC2"
		},
		{
			"bufferView":4,
			"componentType":5123,
			"count":30,
			"type":"SCALAR"
		},
		{
			"bufferView":5,
			"componentType":5126,
			"count":637,
			"max":[
				94.67667388916016,
				98.4251937866211,
				65.26099395751953
			],
			"min":[
				-98.4251937866211,
				-98.4251937866211,
				-11.811023712158203
			],
			"type":"VEC3"
		},
		{
			"bufferView":6,
			"componentType":5126,
			"count":637,
			"type":"VEC3"
		},
		{
			"bufferView":7,
			"componentType":5126,
			"count":637,
			"type":"VEC2"
		},
		{
			"bufferView":8,
			"componentType":5126,
			"count":637,
			"type":"VEC2"
		},
		{
			"bufferView":9,
			"componentType":5123,
			"count":1986,
			"type":"SCALAR"
		},
		{
			"bufferView":10,
			"componentType":5126,
			"count":12,
			"max":[
				96.86202239990234,
				18.685035705566406,
				49.84113311767578
			],
			"min":[
				-96.85405731201172,
				-18.685035705566406,
				49.662986755371094
			],
			"type":"VEC3"
		},
		{
			"bufferView":11,
			"componentType":5126,
			"count":12,
			"type":"VEC3"
		},
		{
			"bufferView":12,
			"componentType":5126,
			"count":12,
			"type":"VEC2"
		},
		{
			"bufferView":13,
			"componentType":5126,
			"count":12,
			"type":"VEC2"
		},
		{
			"bufferView":14,
			"componentType":5123,
			"count":30,
			"type":"SCALAR"
		},
		{
			"bufferView":15,
			"componentType":5126,
			"count":46,
			"max":[
				79.71890258789062,
				43.48357391357422,
				191.35446166992188
			],
			"min":[
				75.78189086914062,
				39.54656219482422,
				73.24423217773438
			],
			"type":"VEC3"
		},
		{
			"bufferView":16,
			"componentType":5126,
			"count":46,
			"type":"VEC3"
		},
		{
			"bufferView":17,
			"componentType":5126,
			"count":46,
			"type":"VEC2"
		},
		{
			"bufferView":18,
			"componentType":5126,
			"count":46,
			"type":"VEC2"
		},
		{
			"bufferView":19,
			"componentType":5123,
			"count":108,
			"type":"SCALAR"
		},
		{
			"bufferView":20,
			"componentType":5126,
			"count":2035,
			"max":[
				98.4251937866211,
				98.4251937866211,
				97.35940551757812
			],
			"min":[
				-98.4251937866211,
				-98.4251937866211,
				-11.811023712158203
			],
			"type":"VEC3"
		},
		{
			"bufferView":21,
			"componentType":5126,
			"count":2035,
			"type":"VEC3"
		},
		{
			"bufferView":22,
			"componentType":5126,
			"count":2035,
			"type":"VEC2"
		},
		{
			"bufferView":23,
			"componentType":5126,
			"count":2035,
			"type":"VEC2"
		},
		{
			"bufferView":24,
			"componentType":5123,
			"count":5892,
			"type":"SCALAR"
		}
	],
	"bufferViews":[
		{
			"buffer":0,
			"byteLength":360,
			"byteOffset":0,
			"target":34962
		},
		{
			"buffer":0,
			"byteLength":360,
			"byteOffset":360,
			"target":34962
		},
		{
			"buffer":0,
			"byteLength":240,
			"byteOffset":720,
			"target":34962
		},
		{
			"buffer":0,
			"byteLength":240,
			"byteOffset":960,
			"target":34962
		},
		{
			"buffer":0,
			"byteLength":60,
			"byteOffset":1200,
			"target":34963
		},
		{
			"buffer":0,
			"byteLength":7644,
			"byteOffset":1260,
			"target":34962
		},
		{
			"buffer":0,
			"byteLength":7644,
			"byteOffset":8904,
			"target":34962
		},
		{
			"buffer":0,
			"byteLength":5096,
			"byteOffset":16548,
			"target":34962
		},
		{
			"buffer":0,
			"byteLength":5096,
			"byteOffset":21644,
			"target":34962
		},
		{
			"buffer":0,
			"byteLength":3972,
			"byteOffset":26740,
			"target":34963
		},
		{
			"buffer":0,
			"byteLength":144,
			"byteOffset":30712,
			"target":34962
		},
		{
			"buffer":0,
			"byteLength":144,
			"byteOffset":30856,
			"target":34962
		},
		{
			"buffer":0,
			"byteLength":96,
			"byteOffset":31000,
			"target":34962
		},
		{
			"buffer":0,
			"byteLength":96,
			"byteOffset":31096,
			"target":34962
		},
		{
			"buffer":0,
			"byteLength":60,
			"byteOffset":31192,
			"target":34963
		},
		{
			"buffer":0,
			"byteLength":552,
			"byteOffset":31252,
			"target":34962
		},
		{
			"buffer":0,
			"byteLength":552,
			"byteOffset":31804,
			"target":34962
		},
		{
			"buffer":0,
			"byteLength":368,
			"byteOffset":32356,
			"target":34962
		},
		{
			"buffer":0,
			"byteLength":368,
			"byteOffset":32724,
			"target":34962
		},
		{
			"buffer":0,
			"byteLength":216,
			"byteOffset":33092,
			"target":34963
		},
		{
			"buffer":0,
			"byteLength":24420,
			"byteOffset":33308,
			"target":34962
		},
		{
			"buffer":0,
			"byteLength":24420,
			"byteOffset":57728,
			"target":34962
		},
		{
			"buffer":0,
			"byteLength":16280,
			"byteOffset":82148,
			"target":34962
		},
		{
			"buffer":0,
			"byteLength":16280,
			"byteOffset":98428,
			"target":34962
		},
		{
			"buffer":0,
			"byteLength":11784,
			"byteOffset":114708,
			"target":34963
		}
	],
	"samplers":[
		{
			"magFilter":9729,
			"minFilter":9987
		}
	],
	"buffers":[
		{
			"byteLength":126492,
			"uri":"Win%20Platform.bin"
		}
	]
}
